<svg width="945" height="230" viewBox="0 0 945 230" fill="none" xmlns="http://www.w3.org/2000/svg">
<path d="M638.869 161.575H631.874V179.442H630.503V161.575H623.521V160.328H638.869V161.575Z" fill="#333333"/>
<path d="M646.998 179.703C646.053 179.715 645.116 179.519 644.255 179.13C643.424 178.755 642.678 178.216 642.06 177.546C641.434 176.869 640.943 176.077 640.614 175.215C640.207 174.188 640.028 173.085 640.09 171.983C640.153 170.88 640.455 169.805 640.976 168.831C641.569 167.766 642.428 166.873 643.469 166.238C644.516 165.587 645.728 165.249 646.96 165.265C648.209 165.243 649.437 165.59 650.489 166.262C651.517 166.927 652.362 167.839 652.946 168.915C653.53 169.992 653.834 171.197 653.83 172.422V172.746C653.845 172.833 653.845 172.921 653.83 173.008H641.574C641.626 174.022 641.93 175.008 642.459 175.875C642.949 176.706 643.64 177.4 644.467 177.895C645.272 178.381 646.195 178.636 647.135 178.631C648.1 178.632 649.047 178.374 649.878 177.883C650.677 177.449 651.312 176.766 651.686 175.938L652.87 176.262C652.597 176.944 652.17 177.554 651.624 178.045C651.024 178.582 650.331 179.005 649.579 179.292C648.753 179.595 647.877 179.735 646.998 179.703ZM641.425 171.96H652.434C652.378 170.942 652.084 169.951 651.574 169.068C651.092 168.25 650.409 167.567 649.591 167.085C648.773 166.611 647.844 166.362 646.898 166.362C645.952 166.362 645.023 166.611 644.205 167.085C643.396 167.574 642.719 168.255 642.235 169.068C641.743 169.955 641.465 170.946 641.425 171.96Z" fill="#333333"/>
<path d="M665.363 179.704C664.426 179.711 663.499 179.515 662.645 179.13C661.816 178.752 661.071 178.214 660.451 177.547C659.812 176.878 659.312 176.09 658.979 175.228C658.627 174.335 658.449 173.382 658.456 172.422C658.438 171.161 658.742 169.917 659.341 168.807C659.935 167.745 660.794 166.856 661.835 166.226C662.907 165.581 664.137 165.249 665.388 165.266C666.569 165.24 667.735 165.542 668.755 166.138C669.703 166.696 670.463 167.526 670.936 168.52L669.615 168.944C669.211 168.187 668.602 167.56 667.857 167.136C667.098 166.701 666.238 166.473 665.363 166.475C664.386 166.465 663.426 166.733 662.595 167.248C661.762 167.776 661.079 168.511 660.613 169.38C660.125 170.322 659.871 171.368 659.871 172.428C659.871 173.489 660.125 174.535 660.613 175.477C661.086 176.369 661.777 177.128 662.62 177.684C663.437 178.224 664.397 178.506 665.376 178.494C666.025 178.498 666.669 178.375 667.271 178.133C667.861 177.91 668.408 177.59 668.892 177.185C669.294 176.855 669.604 176.425 669.789 175.938L671.111 176.312C670.86 177.003 670.43 177.614 669.864 178.083C669.28 178.615 668.604 179.037 667.869 179.33C667.065 179.613 666.215 179.74 665.363 179.704Z" fill="#333333"/>
<path d="M688.205 179.442H686.858V171.674C686.946 170.323 686.638 168.976 685.973 167.797C685.684 167.387 685.295 167.057 684.844 166.839C684.392 166.621 683.893 166.522 683.392 166.55C682.622 166.558 681.866 166.75 681.185 167.111C680.447 167.485 679.797 168.012 679.278 168.657C678.742 169.304 678.347 170.056 678.118 170.864V179.492H676.771V159.804H678.118V168.831C678.668 167.764 679.495 166.864 680.512 166.226C681.483 165.603 682.612 165.27 683.766 165.266C684.464 165.244 685.156 165.39 685.786 165.689C686.34 165.983 686.812 166.412 687.157 166.936C687.54 167.525 687.806 168.181 687.943 168.869C688.127 169.712 688.215 170.574 688.205 171.437V179.442Z" fill="#333333"/>
<path d="M706.384 179.441H705.037V171.674C705.131 170.321 704.868 168.967 704.276 167.746C704.019 167.326 703.649 166.986 703.208 166.765C702.767 166.545 702.274 166.453 701.783 166.499C700.973 166.503 700.174 166.695 699.451 167.061C698.688 167.434 698.009 167.961 697.456 168.607C696.889 169.245 696.463 169.998 696.209 170.813V179.441H694.95V165.477H696.197V168.831C696.57 168.113 697.083 167.477 697.706 166.961C698.333 166.437 699.04 166.016 699.8 165.714C700.563 165.416 701.375 165.264 702.194 165.265C702.866 165.243 703.534 165.384 704.139 165.677C704.66 165.972 705.091 166.403 705.386 166.923C705.741 167.518 705.982 168.173 706.097 168.856C706.245 169.721 706.316 170.597 706.309 171.474L706.384 179.441Z" fill="#333333"/>
<path d="M719.001 179.704C718.081 179.715 717.169 179.532 716.325 179.166C715.481 178.801 714.723 178.262 714.101 177.584C713.494 176.906 713.013 176.125 712.679 175.278C711.998 173.491 711.998 171.516 712.679 169.729C713.009 168.878 713.496 168.096 714.113 167.423C714.729 166.756 715.47 166.218 716.295 165.839C717.144 165.452 718.068 165.256 719.001 165.266C719.93 165.254 720.85 165.45 721.694 165.839C723.36 166.619 724.661 168.013 725.322 169.729C726.004 171.516 726.004 173.491 725.322 175.278C724.989 176.128 724.503 176.909 723.888 177.584C723.272 178.244 722.53 178.774 721.706 179.143C720.855 179.521 719.932 179.712 719.001 179.704ZM713.515 172.522C713.501 173.574 713.755 174.612 714.25 175.54C714.723 176.411 715.404 177.152 716.233 177.696C717.053 178.222 718.008 178.501 718.982 178.501C719.956 178.501 720.911 178.222 721.731 177.696C722.571 177.145 723.257 176.39 723.726 175.502C724.216 174.572 724.469 173.536 724.462 172.485C724.471 171.442 724.218 170.413 723.726 169.492C723.258 168.611 722.576 167.861 721.744 167.311C720.928 166.772 719.972 166.484 718.994 166.484C718.017 166.484 717.061 166.772 716.245 167.311C715.408 167.865 714.723 168.619 714.25 169.505C713.762 170.435 713.514 171.472 713.527 172.522H713.515Z" fill="#333333"/>
<path d="M731.857 159.804H733.228V176.774C733.201 177.012 733.224 177.254 733.295 177.484C733.365 177.713 733.483 177.926 733.64 178.108C733.93 178.357 734.305 178.486 734.687 178.469C734.983 178.468 735.28 178.443 735.572 178.395C735.847 178.343 736.118 178.272 736.383 178.183L736.644 179.28C736.277 179.404 735.902 179.504 735.522 179.579C735.141 179.657 734.752 179.699 734.363 179.704C734.029 179.717 733.696 179.663 733.383 179.546C733.07 179.428 732.784 179.248 732.542 179.018C732.309 178.773 732.128 178.483 732.01 178.166C731.892 177.849 731.84 177.511 731.857 177.173V159.804Z" fill="#333333"/>
<path d="M747.266 179.704C746.327 179.713 745.396 179.522 744.536 179.143C743.72 178.773 742.986 178.243 742.379 177.584C741.768 176.906 741.283 176.125 740.945 175.277C740.263 173.491 740.263 171.516 740.945 169.729C741.28 168.877 741.77 168.095 742.391 167.422C743.009 166.771 743.751 166.249 744.573 165.889C745.421 165.511 746.338 165.315 747.266 165.315C748.194 165.315 749.112 165.511 749.959 165.889C751.626 166.668 752.926 168.062 753.588 169.779C754.27 171.566 754.27 173.541 753.588 175.327C753.259 176.18 752.773 176.962 752.154 177.634C751.538 178.293 750.796 178.823 749.972 179.192C749.117 179.553 748.194 179.727 747.266 179.704ZM741.78 172.522C741.766 173.575 742.024 174.615 742.528 175.539C742.993 176.413 743.671 177.155 744.498 177.696C745.319 178.222 746.273 178.501 747.248 178.501C748.222 178.501 749.176 178.222 749.997 177.696C750.836 177.145 751.523 176.39 751.992 175.502C752.488 174.574 752.741 173.536 752.727 172.485C752.742 171.441 752.489 170.41 751.992 169.492C751.527 168.608 750.845 167.858 750.009 167.31C749.194 166.771 748.238 166.484 747.26 166.484C746.283 166.484 745.327 166.771 744.511 167.31C743.675 167.862 742.993 168.617 742.528 169.505C742.028 170.431 741.771 171.469 741.78 172.522Z" fill="#333333"/>
<path d="M765.67 179.704C764.752 179.714 763.843 179.514 763.014 179.118C762.205 178.728 761.486 178.171 760.907 177.484C760.326 176.797 759.862 176.017 759.536 175.178C759.208 174.331 759.039 173.43 759.037 172.522C759.037 171.587 759.198 170.659 759.511 169.779C759.81 168.928 760.267 168.141 760.857 167.46C761.432 166.795 762.131 166.249 762.915 165.851C763.735 165.456 764.635 165.255 765.545 165.265C766.68 165.24 767.795 165.567 768.737 166.201C769.637 166.828 770.414 167.613 771.031 168.52V165.477H772.278V179.716C772.315 180.843 771.992 181.952 771.356 182.883C770.753 183.744 769.913 184.412 768.937 184.803C767.906 185.234 766.799 185.45 765.683 185.439C764.33 185.501 762.985 185.195 761.793 184.554C760.843 183.97 760.047 183.166 759.473 182.21L760.384 181.586C760.909 182.492 761.695 183.218 762.64 183.668C763.594 184.11 764.632 184.34 765.683 184.342C766.582 184.351 767.474 184.173 768.301 183.818C769.072 183.491 769.737 182.956 770.221 182.272C770.71 181.534 770.959 180.663 770.932 179.778V176.711C770.37 177.624 769.584 178.379 768.65 178.906C767.745 179.431 766.717 179.707 765.67 179.704ZM765.994 178.556C766.583 178.554 767.166 178.444 767.715 178.232C768.266 178.018 768.783 177.724 769.249 177.36C769.69 176.999 770.08 176.579 770.408 176.113C770.687 175.71 770.87 175.25 770.944 174.766V170.165C770.661 169.445 770.237 168.788 769.697 168.233C769.162 167.71 768.537 167.287 767.852 166.986C767.197 166.678 766.482 166.516 765.757 166.512C764.968 166.497 764.187 166.681 763.488 167.048C762.841 167.399 762.272 167.878 761.817 168.457C761.356 169.05 760.998 169.716 760.758 170.427C760.523 171.127 760.401 171.859 760.396 172.597C760.394 173.378 760.542 174.153 760.833 174.878C761.126 175.59 761.549 176.241 762.079 176.798C762.571 177.357 763.174 177.807 763.85 178.12C764.525 178.419 765.256 178.568 765.994 178.556Z" fill="#333333"/>
<path d="M779.173 162.286V159.792H780.519V162.286H779.173ZM779.173 179.442V165.453H780.519V179.442H779.173Z" fill="#333333"/>
<path d="M793.324 179.703C792.379 179.713 791.443 179.517 790.581 179.129C789.751 178.755 789.004 178.216 788.387 177.546C787.76 176.869 787.269 176.077 786.941 175.214C786.589 174.325 786.412 173.377 786.417 172.422C786.396 171.168 786.701 169.931 787.302 168.831C787.896 167.766 788.755 166.872 789.796 166.237C790.847 165.585 792.063 165.248 793.299 165.265C794.544 165.245 795.767 165.592 796.815 166.262C797.844 166.927 798.689 167.839 799.273 168.915C799.857 169.991 800.161 171.197 800.157 172.422V172.746C800.165 172.833 800.165 172.921 800.157 173.008H787.888C787.94 174.022 788.244 175.008 788.773 175.875C789.263 176.706 789.954 177.4 790.781 177.895C791.586 178.381 792.509 178.636 793.449 178.631C794.414 178.632 795.361 178.374 796.192 177.883C796.994 177.453 797.63 176.768 798 175.938L799.184 176.262C798.911 176.944 798.485 177.554 797.938 178.045C797.338 178.582 796.645 179.005 795.893 179.292C795.071 179.594 794.199 179.734 793.324 179.703ZM787.751 171.96H798.81C798.755 170.942 798.46 169.951 797.95 169.068C797.469 168.253 796.792 167.571 795.98 167.085C795.159 166.607 794.225 166.357 793.275 166.362C792.328 166.356 791.397 166.606 790.581 167.085C789.772 167.574 789.095 168.255 788.611 169.068C788.119 169.955 787.841 170.946 787.801 171.96H787.751Z" fill="#333333"/>
<path d="M810.206 179.703C809.149 179.712 808.1 179.521 807.114 179.142C806.162 178.766 805.309 178.178 804.62 177.421L805.231 176.486C805.911 177.154 806.705 177.694 807.575 178.082C808.392 178.423 809.271 178.593 810.156 178.581C811.181 178.629 812.198 178.368 813.074 177.833C813.428 177.612 813.718 177.303 813.915 176.935C814.111 176.568 814.208 176.155 814.196 175.738C814.211 175.48 814.172 175.221 814.082 174.979C813.991 174.736 813.852 174.515 813.672 174.329C813.231 173.96 812.717 173.688 812.163 173.531C811.503 173.332 810.717 173.107 809.782 172.87C808.963 172.668 808.159 172.41 807.376 172.097C806.797 171.893 806.287 171.53 805.904 171.05C805.559 170.536 805.392 169.923 805.431 169.304C805.4 168.499 805.636 167.705 806.104 167.048C806.586 166.435 807.229 165.969 807.962 165.701C808.797 165.402 809.68 165.255 810.567 165.265C811.546 165.241 812.519 165.424 813.423 165.801C814.162 166.098 814.808 166.589 815.293 167.222L814.57 168.083C814.112 167.516 813.509 167.085 812.824 166.836C812.066 166.555 811.263 166.415 810.455 166.424C809.835 166.42 809.217 166.508 808.622 166.686C808.088 166.84 807.608 167.143 807.238 167.559C806.869 168.016 806.682 168.593 806.715 169.18C806.689 169.629 806.826 170.071 807.101 170.427C807.423 170.768 807.826 171.021 808.273 171.162C808.797 171.349 809.445 171.549 810.206 171.761C811.163 171.991 812.108 172.27 813.036 172.596C813.723 172.824 814.349 173.203 814.869 173.706C815.32 174.24 815.548 174.928 815.505 175.626C815.528 176.205 815.408 176.781 815.156 177.303C814.904 177.825 814.527 178.277 814.059 178.618C812.928 179.393 811.574 179.775 810.206 179.703Z" fill="#333333"/>
<path d="M831.377 179.442V160.34H839.232C840.002 160.334 840.762 160.509 841.451 160.852C842.121 161.191 842.721 161.652 843.222 162.21C843.717 162.769 844.11 163.41 844.381 164.106C844.663 164.79 844.807 165.523 844.805 166.263C844.805 167.267 844.57 168.258 844.119 169.155C843.679 170.035 843.033 170.797 842.237 171.375C841.406 171.959 840.409 172.26 839.394 172.235H832.748V179.442H831.377ZM832.748 170.963H839.344C840.125 170.981 840.891 170.745 841.526 170.29C842.134 169.838 842.615 169.237 842.922 168.544C843.247 167.828 843.412 167.049 843.409 166.263C843.411 165.468 843.218 164.684 842.849 163.98C842.48 163.276 841.944 162.673 841.289 162.223C840.668 161.8 839.934 161.574 839.182 161.575H832.748V170.963Z" fill="#333333"/>
<path d="M854.68 179.442L848.832 165.477H850.266L855.403 178.02L860.565 165.477H861.899L856.064 179.442H854.68Z" fill="#333333"/>
<path d="M873.507 178.881C873.322 178.953 873.143 179.041 872.971 179.142C872.646 179.31 872.303 179.44 871.949 179.529C871.502 179.653 871.04 179.712 870.577 179.704C870.11 179.71 869.646 179.617 869.218 179.429C868.806 179.246 868.455 178.947 868.208 178.569C867.949 178.159 867.814 177.682 867.822 177.197V166.587H865.864V165.477H867.822V160.69H869.168V165.477H872.423V166.587H869.168V176.873C869.161 177.111 869.208 177.348 869.308 177.564C869.407 177.781 869.556 177.971 869.742 178.12C870.098 178.393 870.54 178.531 870.989 178.507C871.486 178.515 871.979 178.418 872.435 178.22C872.687 178.122 872.929 178.001 873.158 177.858L873.507 178.881Z" fill="#333333"/>
<path d="M878.27 179.442V177.11H879.442V179.404L878.27 179.442Z" fill="#333333"/>
<path d="M896.012 179.441V160.34H897.383V178.207H908.792V179.454L896.012 179.441Z" fill="#333333"/>
<path d="M920.175 178.881C919.987 178.955 919.803 179.043 919.627 179.142C919.304 179.314 918.96 179.444 918.604 179.529C918.158 179.655 917.696 179.713 917.233 179.704C916.766 179.708 916.303 179.614 915.874 179.429C915.467 179.242 915.121 178.944 914.876 178.569C914.607 178.163 914.472 177.684 914.49 177.197V166.587H912.532V165.477H914.49V160.69H915.836V165.477H919.09V166.587H915.836V176.873C915.829 177.111 915.876 177.348 915.976 177.564C916.075 177.781 916.224 177.971 916.41 178.12C916.748 178.381 917.167 178.518 917.594 178.507C918.091 178.515 918.585 178.418 919.041 178.22C919.291 178.119 919.533 177.998 919.764 177.858L920.175 178.881Z" fill="#333333"/>
<path d="M923.903 172.497C923.896 171.251 924.182 170.021 924.739 168.906C925.269 167.85 926.059 166.945 927.033 166.275C928.002 165.629 929.141 165.284 930.306 165.284C931.471 165.284 932.61 165.629 933.579 166.275C934.482 166.869 935.24 167.657 935.798 168.582V159.854H937.145V177.709C937.129 177.884 937.183 178.059 937.294 178.195C937.347 178.252 937.411 178.298 937.481 178.33C937.552 178.362 937.628 178.38 937.706 178.382V179.492C937.49 179.514 937.273 179.514 937.057 179.492C936.742 179.445 936.457 179.28 936.259 179.03C936.053 178.816 935.937 178.53 935.935 178.232V176.674C935.36 177.6 934.563 178.367 933.616 178.906C932.713 179.438 931.685 179.722 930.636 179.729C929.705 179.738 928.783 179.533 927.943 179.13C927.128 178.737 926.399 178.186 925.799 177.509C925.2 176.829 924.727 176.048 924.402 175.203C924.07 174.339 923.901 173.422 923.903 172.497ZM935.798 174.754V170.165C935.519 169.465 935.094 168.831 934.551 168.308C934.008 167.755 933.37 167.304 932.669 166.974C932.025 166.653 931.318 166.482 930.599 166.475C929.837 166.465 929.084 166.64 928.405 166.986C927.759 167.334 927.191 167.809 926.734 168.383C926.258 168.96 925.891 169.619 925.649 170.328C925.391 171.043 925.26 171.799 925.263 172.559C925.263 173.337 925.411 174.107 925.699 174.829C925.995 175.542 926.418 176.197 926.946 176.761C927.447 177.29 928.049 177.714 928.716 178.008C929.405 178.32 930.154 178.478 930.911 178.469C931.438 178.459 931.961 178.362 932.457 178.182C933.011 177.981 933.536 177.704 934.015 177.36C934.496 177.015 934.917 176.593 935.262 176.113C935.55 175.711 935.734 175.244 935.798 174.754Z" fill="#333333"/>
<path d="M943.815 179.442V177.11H945V179.404L943.815 179.442Z" fill="#333333"/>
<path d="M114.882 229.763C178.329 229.763 229.763 178.329 229.763 114.882C229.763 51.4343 178.329 0 114.882 0C51.4343 0 0 51.4343 0 114.882C0 178.329 51.4343 229.763 114.882 229.763Z" fill="url(#paint0_linear_241_303)"/>
<path fill-rule="evenodd" clip-rule="evenodd" d="M34.7361 142.024C34.62 142.962 34.3146 143.865 33.8385 144.681C33.3625 145.497 32.7256 146.207 31.9667 146.769C31.2078 147.331 30.3426 147.732 29.4236 147.95C28.5047 148.167 27.5511 148.196 26.6209 148.033C25.6906 147.871 24.8031 147.521 24.0121 147.005C23.2211 146.489 22.5432 145.818 22.0195 145.032C21.4959 144.247 21.1373 143.363 20.9657 142.434C20.7941 141.505 20.8129 140.552 21.0211 139.631C21.0211 139.481 29.8236 88.0623 52.3037 88.0623C64.8467 88.0623 70.8065 104.271 77.2401 121.726C82.8383 136.987 88.8853 153.458 95.9423 153.458C102.501 153.458 109.657 130.903 116.465 109.445C124.108 85.3193 131.427 62.3031 145.229 62.3031C160.291 62.3031 167.036 87.6633 173.37 111.49C177.684 127.699 181.761 142.985 183.17 142.985C183.681 143.016 184.189 142.881 184.616 142.598C185.154 142.129 185.58 141.545 185.863 140.89C186.272 140.071 186.839 139.341 187.53 138.741C188.222 138.142 189.024 137.684 189.893 137.395C190.761 137.105 191.678 136.99 192.591 137.055C193.504 137.119 194.395 137.364 195.214 137.773C196.033 138.182 196.763 138.749 197.362 139.44C197.962 140.132 198.42 140.935 198.709 141.803C198.998 142.671 199.114 143.588 199.049 144.501C198.984 145.414 198.74 146.305 198.331 147.124C197.054 149.749 195.174 152.035 192.845 153.794C190.044 155.865 186.64 156.96 183.157 156.911C171.051 156.911 165.639 136.563 159.892 114.994C154.904 96.2165 151.862 76.2176 145.216 76.2176C140.229 76.2176 135.815 94.471 129.743 113.622C121.44 139.805 112.7 167.385 95.9298 167.385C79.1602 167.385 71.3551 146.189 64.136 126.502C59.4729 113.797 56.0566 101.964 52.3162 101.964C41.6434 102.014 34.761 141.925 34.7361 142.024Z" fill="#212C52"/>
<path fill-rule="evenodd" clip-rule="evenodd" d="M194.69 123.061C194.69 124.464 195.107 125.835 195.886 127.002C196.666 128.169 197.774 129.078 199.07 129.615C200.366 130.152 201.793 130.292 203.169 130.019C204.545 129.745 205.809 129.069 206.801 128.077C207.793 127.085 208.469 125.821 208.743 124.445C209.017 123.068 208.876 121.642 208.339 120.346C207.802 119.049 206.893 117.941 205.726 117.162C204.56 116.382 203.188 115.966 201.785 115.966C200.853 115.965 199.929 116.147 199.068 116.503C198.207 116.859 197.424 117.381 196.765 118.04C196.106 118.699 195.583 119.482 195.227 120.344C194.871 121.205 194.689 122.128 194.69 123.061Z" fill="#212C52"/>
<path d="M332.875 143.446C328.823 143.446 325.893 142.199 324.147 139.581C323.045 138.026 322.437 136.175 322.401 134.269C322.401 132.041 322.401 127.935 322.401 121.951V75.943V74.1351C322.405 71.8336 322.091 69.5427 321.466 67.3275C319.995 63.3876 317.003 61.4051 312.502 61.4051C311.602 61.4093 310.705 61.497 309.821 61.6669C301.268 63.2712 292.578 68.0797 283.75 76.0926V84.1346C283.675 94.9403 283.642 107.803 283.65 122.724C283.65 128.733 283.65 132.623 283.8 134.369C283.898 135.536 284.226 136.673 284.765 137.713C285.305 138.753 286.044 139.676 286.942 140.428C288.753 141.948 290.95 142.937 293.288 143.284C281.651 143.284 275.596 143.284 275.122 143.284C274.661 143.284 274.199 143.284 273.751 143.284C270.151 143.284 267.438 142.136 265.609 139.842C264.335 138.204 263.63 136.195 263.602 134.119C263.602 133.745 263.602 125.911 263.602 110.617V74.4593V61.4674C264.362 61.5423 265.098 61.5797 265.821 61.5797C269.076 61.5335 272.286 60.8118 275.247 59.4601C278.572 57.9796 281.502 55.7372 283.8 52.9143V73.3247C288.475 69.1582 293.423 65.3093 298.612 61.8041C303.795 58.2765 309.512 55.6073 315.544 53.8993C317.846 53.2842 320.218 52.974 322.601 52.9766C323.424 52.9766 324.845 53.0515 326.853 53.226C328.86 53.4006 331.191 54.5726 333.835 56.7296C337.517 59.963 340.044 64.8089 341.415 71.2674C345.779 67.5347 350.381 64.0904 355.193 60.9562C359.99 57.8096 365.248 55.4288 370.778 53.8993C373.068 53.2913 375.428 52.9812 377.797 52.9766C379.586 53.0857 381.365 53.319 383.121 53.6748C385.503 54.0364 387.984 55.6448 390.602 58.4875C394.384 62.9262 396.687 69.1603 397.51 77.1898C397.51 78.9852 397.51 80.7681 397.609 82.5511C397.709 85.2359 397.759 92.7417 397.759 105.069V133.745C397.706 135.217 398.046 136.676 398.744 137.972C399.343 139.053 400.157 140 401.138 140.753C402.001 141.425 402.943 141.991 403.943 142.436C404.706 142.776 405.499 143.043 406.312 143.234L407.297 143.433H389.555H388.009C383.994 143.433 381.102 142.186 379.356 139.63C378.25 138.076 377.638 136.226 377.598 134.319C377.598 130.853 377.598 123.588 377.598 112.525V75.8308V74.2847C377.598 71.9154 377.27 69.5575 376.625 67.2776C375.138 63.3959 372.166 61.455 367.711 61.455C366.968 61.4564 366.227 61.5064 365.491 61.6046C357.487 62.9511 349.59 66.9908 341.802 73.7236L342.263 77.115C342.263 78.873 342.263 80.631 342.388 82.3766C342.513 84.1221 342.525 90.3437 342.525 101.079V133.745C342.489 135.422 342.963 137.07 343.884 138.471C344.796 139.819 345.992 140.951 347.388 141.787C348.814 142.646 350.401 143.206 352.051 143.433C340.854 143.433 334.982 143.433 334.433 143.433C333.922 143.446 333.386 143.446 332.875 143.446Z" fill="#212C52"/>
<path d="M482.206 133.472C482.158 134.946 482.484 136.409 483.154 137.723C483.743 138.811 484.55 139.765 485.523 140.529C486.39 141.205 487.347 141.759 488.366 142.174C489.457 142.601 490.583 142.931 491.732 143.159H472.419C471.164 143.226 469.905 143.121 468.678 142.848C467.285 142.497 465.998 141.812 464.929 140.851C463.86 139.891 463.042 138.685 462.544 137.337C458.006 139.032 453.367 140.443 448.655 141.563C443.954 142.69 439.137 143.259 434.304 143.259C430.455 143.327 426.635 142.597 423.082 141.115C419.552 139.632 416.665 136.94 414.941 133.521C413.321 130.209 412.505 126.561 412.559 122.874C412.575 119.194 413.347 115.557 414.828 112.188C417.154 107.138 420.858 102.847 425.514 99.8075C430.228 96.7039 435.398 94.3564 440.837 92.8503C446.121 91.3535 451.504 90.2286 456.946 89.4839C458.573 88.7891 460.238 88.1856 461.933 87.676V86.1798C461.933 83.8109 461.933 81.4544 461.833 79.1228C461.793 78.796 461.772 78.4671 461.771 78.1379C461.707 75.0679 461.432 72.006 460.948 68.9738C460.62 66.8538 460.102 64.7674 459.402 62.7397C458.722 60.7057 457.598 58.8487 456.11 57.3036C455.306 56.5053 454.311 55.9259 453.22 55.6204C452.129 55.3149 450.978 55.2934 449.876 55.558C447.604 56.0847 445.561 57.331 444.054 59.1114C441.892 61.7478 440.311 64.8112 439.416 68.101C438.473 71.3869 437.883 74.7642 437.658 78.1753C435.397 78.2009 433.191 78.8713 431.299 80.1079C429.404 81.329 427.663 82.7732 426.112 84.4094C425.505 79.2735 426.327 74.0696 428.487 69.3707C430.647 64.6718 434.062 60.6601 438.356 57.7774C442.109 55.2131 446.432 53.6039 450.949 53.0893C458.36 52.3112 465.783 54.4487 471.646 59.0491C472.194 59.5645 472.743 60.0632 473.292 60.5453C474.269 61.3856 475.182 62.2984 476.022 63.2758C477.519 65.0985 478.776 67.1056 479.763 69.2481C481.804 73.7133 482.638 78.6358 482.181 83.5241V133.397L482.206 133.472ZM462.008 135.379C461.795 133.287 461.745 131.182 461.858 129.083C461.858 128.16 461.958 127.25 461.958 126.352V89.833C456.9 91.4021 452.117 93.7493 447.782 96.7903C442.505 100.648 438.637 106.128 436.768 112.391C434.899 118.655 435.133 125.358 437.433 131.477C438.148 133.396 439.267 135.138 440.715 136.586C442.163 138.034 443.905 139.153 445.824 139.868C451.324 138.755 456.734 137.234 462.008 135.317V135.379Z" fill="#212C52"/>
<path d="M732.641 143.246C731.993 143.246 731.395 143.246 730.734 143.146C728.065 142.911 725.497 142.018 723.258 140.547C721.019 139.076 719.18 137.074 717.904 134.718C715.25 129.907 713.651 124.585 713.216 119.108C713.116 118.276 713.066 99.0714 713.066 61.4923H713.428C713.718 61.5164 714.01 61.5164 714.301 61.4923C717.535 61.4933 720.743 60.9191 723.777 59.7967C726.277 58.8226 728.583 57.4079 730.584 55.6198C731.477 54.7854 732.31 53.8897 733.078 52.9392V125.254C733.626 129.444 735.01 132.187 737.255 133.496C738.872 134.401 740.7 134.862 742.554 134.83C743.469 134.823 744.382 134.74 745.284 134.581C748.458 133.965 751.541 132.951 754.461 131.563C757.034 130.365 759.532 129.012 761.942 127.511C763.961 126.264 765.009 125.554 765.121 125.454C767.274 123.708 769.402 121.905 771.505 120.043V61.5173H773.051C776.265 61.5623 779.46 61.0171 782.477 59.9089C786.175 58.4579 789.426 56.0584 791.903 52.9517V103.348L812.201 86.2915C812.481 86.0332 812.777 85.7918 813.086 85.5684L813.335 85.319V61.5173H815.305C818.801 61.5396 822.256 60.7732 825.414 59.275C828.573 57.7769 831.352 55.5856 833.546 52.8644V68.3249H833.746C838.564 64.0187 843.875 60.298 849.568 57.2407C852.452 55.6684 855.534 54.4901 858.732 53.7371C860.158 53.4297 861.612 53.2751 863.071 53.2758C864.813 53.2729 866.546 53.5164 868.22 53.999C871.37 55.038 873.361 56.5508 874.192 58.5374L874.604 59.9214C873.47 59.4758 872.268 59.231 871.051 59.1982H870.489C869.39 59.2943 868.321 59.6124 867.347 60.1333C866.635 60.5039 865.977 60.9695 865.39 61.5173L864.717 62.1905C863.069 60.4309 860.869 59.2871 858.483 58.9488C857.656 58.838 856.823 58.7839 855.989 58.7868C854.653 58.7845 853.322 58.9436 852.024 59.2606C850.511 59.5928 849.03 60.0558 847.598 60.6445C842.611 63.767 837.905 67.3171 833.534 71.2549V133.471C833.489 134.821 833.77 136.162 834.351 137.381C834.933 138.601 835.798 139.663 836.875 140.478C838.413 141.675 840.19 142.526 842.087 142.972L843.059 143.184C828.804 143.184 821.435 143.151 820.953 143.084C819.038 142.778 817.273 141.859 815.925 140.466C814.576 139.072 813.715 137.278 813.472 135.354C813.472 135.005 813.472 132.486 813.472 127.773V87.9498L812.862 88.461C812.413 88.9099 809.113 91.6736 802.962 96.7523L771.991 122.624C760.445 132.773 749.785 139.298 740.01 142.199H739.91H739.711C737.409 142.851 735.033 143.203 732.641 143.246ZM801.491 143.146H780.769C780.306 143.143 779.843 143.109 779.385 143.047C777.471 142.737 775.708 141.817 774.36 140.424C773.012 139.031 772.15 137.239 771.904 135.316C771.904 135.104 771.904 133.858 771.904 131.576V128.122L792.102 111.116V133.471C792.051 134.95 792.391 136.417 793.087 137.723C793.685 138.811 794.5 139.766 795.481 140.528C796.339 141.199 797.282 141.752 798.286 142.174C799.051 142.502 799.844 142.761 800.655 142.947L801.491 143.146Z" fill="#212C52"/>
<path d="M935.462 133.472C935.417 134.947 935.747 136.41 936.422 137.723C937.007 138.813 937.814 139.769 938.791 140.528C939.654 141.205 940.606 141.759 941.621 142.174C942.716 142.603 943.847 142.932 945 143.159H925.674C924.419 143.225 923.161 143.12 921.934 142.848C920.542 142.496 919.257 141.81 918.191 140.85C917.124 139.89 916.307 138.684 915.812 137.337C911.273 139.03 906.635 140.442 901.922 141.563C897.222 142.689 892.405 143.258 887.572 143.259C883.723 143.326 879.903 142.596 876.35 141.115C872.82 139.632 869.933 136.94 868.208 133.521C866.587 130.21 865.775 126.56 865.839 122.874C865.849 119.193 866.621 115.555 868.109 112.188C870.416 107.145 874.098 102.854 878.732 99.8075C883.45 96.7037 888.624 94.3563 894.067 92.8502C899.348 91.3536 904.726 90.2286 910.164 89.4838C911.791 88.7891 913.456 88.1856 915.151 87.676V86.1798C915.151 83.8108 915.151 81.4543 915.051 79.1228C915.032 78.7947 915.032 78.4659 915.051 78.1378C914.975 75.0686 914.7 72.0074 914.228 68.9737C913.9 66.8537 913.383 64.7674 912.682 62.7396C912.003 60.7027 910.874 58.8448 909.378 57.3035C908.576 56.5032 907.581 55.9225 906.489 55.6168C905.398 55.3112 904.246 55.2909 903.144 55.558C900.873 56.088 898.832 57.3336 897.322 59.1114C895.16 61.7477 893.579 64.8112 892.683 68.101C891.747 71.3883 891.157 74.7649 890.925 78.1753C888.666 78.2042 886.46 78.8744 884.567 80.1078C882.673 81.3258 880.936 82.7703 879.392 84.4093C878.54 76.9528 880.685 69.463 885.354 63.5873C890.023 57.7115 896.835 53.9309 904.291 53.0768C911.708 52.2989 919.137 54.4411 925.001 59.0491C925.55 59.5644 926.098 60.0632 926.647 60.5453C927.63 61.3791 928.543 62.2923 929.377 63.2758C930.883 65.0922 932.141 67.1005 933.118 69.248C935.133 73.7201 935.941 78.6423 935.462 83.5241V133.397V133.472ZM915.263 135.379C915.063 133.287 915.013 131.182 915.114 129.083C915.114 128.16 915.213 127.25 915.213 126.352V89.833C910.159 91.4023 905.381 93.7496 901.05 96.7902C895.771 100.646 891.9 106.125 890.029 112.389C888.158 118.653 888.39 125.357 890.689 131.477C891.404 133.397 892.524 135.141 893.975 136.589C895.425 138.037 897.17 139.156 899.092 139.868C904.588 138.755 909.994 137.234 915.263 135.317V135.379Z" fill="#212C52"/>
<path d="M703.267 142.885C702.448 142.698 701.646 142.44 700.873 142.112C699.863 141.702 698.918 141.148 698.067 140.467C697.101 139.697 696.296 138.743 695.698 137.661C695.009 136.353 694.67 134.888 694.713 133.41V82.2902C694.713 79.8839 694.614 78.076 694.514 76.879L694.152 74.3854C693.602 70.3359 692.42 66.3979 690.649 62.7152C689.257 59.4295 686.821 56.6947 683.716 54.9351C681.108 53.535 678.199 52.7864 675.238 52.7531C672.769 52.7884 670.312 53.1149 667.919 53.7257C667.855 53.7507 667.784 53.7507 667.72 53.7257C657.995 56.5767 647.397 63.0518 635.926 73.151V0.561401C633.794 3.25793 631.076 5.43387 627.978 6.9244C624.881 8.41492 621.484 9.18093 618.047 9.16442H615.728V78.8116C623.025 88.6053 629.131 99.2321 633.919 110.468C634.642 112.264 635.303 114.022 635.926 115.78V75.8941C638.021 74.0488 640.153 72.2533 642.31 70.5452C642.447 70.4081 643.556 69.66 645.738 68.3009C648.314 66.7086 650.992 65.2882 653.755 64.0493C657.28 62.2715 661.145 61.2682 665.089 61.1068C671.232 61.1068 674.39 65.1963 674.565 73.3755V134.07C674.565 134.494 674.565 134.881 674.565 135.255C674.828 137.188 675.708 138.984 677.074 140.376C678.44 141.769 680.218 142.684 682.145 142.985C682.605 143.077 683.074 143.115 683.542 143.097H704.251L703.267 142.885Z" fill="#212C52"/>
<path d="M631.001 142.523C630.287 132.823 627.991 123.304 624.206 114.345C617.872 98.7596 607.997 85.4063 597.711 72.2773C582.525 52.8394 567.339 33.4016 555.768 11.4701C554.852 9.492 553.613 7.68017 552.102 6.10876C552.447 8.13992 552.964 10.138 553.649 12.081C559.883 26.0828 566.017 40.1468 572.7 53.9366C579.782 68.4994 587.662 82.7257 591.539 98.5976C595.354 114.033 594.207 128.521 583.41 141.201C578.486 147.172 571.878 151.521 564.447 153.684C557.016 155.846 549.106 155.721 541.747 153.325C534.388 150.929 527.921 146.373 523.188 140.25C518.454 134.127 515.674 126.721 515.209 118.996C514.698 112.225 517.341 109.208 524.099 110.268C529.71 111.128 535.133 113.21 540.694 114.769C529.111 101.291 520.334 86.5284 523.837 66.8412C515.198 73.5356 508.554 82.4648 504.624 92.6628C494.4 118.085 501.569 145.727 522.216 160.552C532.312 167.83 544.621 171.378 557.042 170.589C569.463 169.8 581.224 164.723 590.317 156.225C594.21 152.546 597.753 148.514 600.903 144.181C607.723 134.868 614.73 133.06 624.867 138.633C626.799 139.705 628.595 140.952 631.001 142.523Z" fill="#FCBD17"/>
<path d="M263.514 172.622H491.731L505.122 179.155H263.514V172.622Z" fill="#FFBE0F"/>
<defs>
<linearGradient id="paint0_linear_241_303" x1="229.763" y1="114.882" x2="0" y2="114.882" gradientUnits="userSpaceOnUse">
<stop stop-color="#FFBE0F"/>
<stop offset="0.27" stop-color="#FFC113"/>
<stop offset="0.56" stop-color="#FFC920"/>
<stop offset="0.85" stop-color="#FFD635"/>
<stop offset="1" stop-color="#FFDF43"/>
</linearGradient>
</defs>
</svg>
